# xmcd CD database file
#
# Track frame offsets:
#	150
#	19425
#	35625
#	53919
#	72160
#	93887
#	116503
#	141526
#	155495
#	172172
#	201898
#	217897
#	224364
#	230769
#	257364
#	264547
#	276131
#	293890
#
# Disc length: 4099 seconds
#
# Revision: 8
# Processed by: cddbd v1.5.2PL0 Copyright (c) Steve Scherf et al.
# Submitted via: CDex 1.70beta2
#
DISCID=1b100112
DTITLE=Various Artist - Spiritus Les chants de l'âme
DYEAR=1997
DGENRE=New Age
TTITLE0=Various - Era - Ameno
TTITLE1=Gregorian - So sad
TTITLE2=Various - Indiens sacred spirit - Yeha Noha
TTITLE3=Amina - Waadileh
TTITLE4=Various - Enigma - Beyond the invisible
TTITLE5=Urga (ost) - Urga
TTITLE6=Les nouvelles polyphonies corses - Memoria
TTITLE7=Le mystère des voix bulgares - Shope shope
TTITLE8=Le temps des gitans (ost) - Ederlezi
TTITLE9=Irene Papas - Menousis
TTITLE10=Diva (ost) - La wally
TTITLE11=Generoso Risuegliati o Core - Farinelli, Il Castrato
TTITLE12=Les voix de l'âme - Vzbrannoi Voievodie
TTITLE13=Les nouvelles polyphonies corses - Dies Irae
TTITLE14=Chants gregoriens a silos - Sacrifium - offerte Demino
TTITLE15=Carmina Burana - Carl Orff - O fortuna
TTITLE16=King Athur - Purcell - What power art thou
TTITLE17=Lambarena - Was mir behagt Ist nur die muntre Jagd
EXTD=YEAR: 1997
EXTT0=
EXTT1=
EXTT2=
EXTT3=
EXTT4=
EXTT5=
EXTT6=
EXTT7=
EXTT8=
EXTT9=
EXTT10=
EXTT11=
EXTT12=
EXTT13=
EXTT14=
EXTT15=
EXTT16=
EXTT17=
PLAYORDER=
